<?xml version="1.0" encoding="UTF-8"?>
<svg width="57px" height="57px" viewBox="0 0 57 57" version="1.1" xmlns="http://www.w3.org/2000/svg" xmlns:xlink="http://www.w3.org/1999/xlink">
    <!-- Generator: Sketch 43.1 (39012) - http://www.bohemiancoding.com/sketch -->
    <title>flexible-payments</title>
    <desc>Created with Sketch.</desc>
    <defs></defs>
    <g id="Page-1" stroke="none" stroke-width="1" fill="none" fill-rule="evenodd">
        <g id="Desktop-HD" transform="translate(-909.000000, -1224.000000)" fill-rule="nonzero" fill="#A9F489">
            <g id="flexible-payments" transform="translate(909.000000, 1224.000000)">
                <g id="Group">
                    <path d="M56.3508604,19.9947722 L45.7784473,2.19489028 C44.5240932,0.0445689762 42.1945784,-0.552742497 40.402644,0.522418155 L12.2095425,17.3068706 C10.6565326,18.2028378 9.99949002,20.0545033 10.7162638,21.9061689 C8.26728675,23.4591787 4.26529988,38.7503524 4.26529988,38.7503524 L0.800893331,41.6174475 C0.0243884159,42.2744901 -0.214536173,43.3496508 0.203581858,44.3053491 L6.29615889,55.6542671 C6.83373921,56.6099655 7.96863101,57.0280835 8.98406052,56.6099655 C10.8954572,55.7737294 14.061208,54.5791065 16.9283031,54.1609885 C19.1383556,53.8623327 21.8859883,51.7120114 22.3041064,51.1146999 C23.7376539,49.3824967 38.2523227,31.5228836 38.2523227,31.5228836 C39.6858702,29.7309492 39.3274834,27.0430476 37.4160866,25.7289623 C35.6838834,24.5343394 33.2946375,24.9524574 31.9208211,26.5651984 L25.0517391,34.9872902 C23.9765785,36.3013754 22.0054506,36.122182 21.1692146,34.6886344 L17.5853457,28.6557885 L47.7495751,10.6767132 L53.8421522,20.8907394 C54.1408079,21.4283197 53.9616145,22.1450935 53.4240341,22.5034804 L41.8959227,29.3725623 L41.8959227,29.4920246 C41.8959227,30.3879918 41.597267,31.283959 40.9999555,32.0007328 L33.9516801,40.6617492 L34.1308735,40.9604049 C34.8476473,42.2744901 36.5201194,42.6926082 37.8342047,41.9758344 L38.2523227,41.7369098 C39.5664079,41.020136 40.1039883,39.4671262 39.7456014,38.0933098 C40.0442571,38.2127721 40.3429129,38.2127721 40.6415686,38.2127721 C41.1791489,38.2127721 41.7167293,38.0933098 42.1945784,37.7946541 C43.6878571,36.958418 44.2254374,34.9872902 43.3892014,33.4940115 L43.3892014,33.4940115 C43.6878571,33.6134738 43.9865129,33.6134738 44.3448997,33.6134738 C44.8824801,33.6134738 45.4200604,33.4940115 45.8979096,33.1953557 C47.3314571,32.4188508 47.8690374,30.6269164 47.2119948,29.1933689 L54.7978505,24.7135328 C56.5897849,23.6981033 57.1870964,21.3685886 56.3508604,19.9947722 Z M14.7182507,23.8175656 L13.1055097,21.129664 C12.7471228,20.5920837 12.9860474,19.8753099 13.5236277,19.516923 L41.7167293,2.73247061 C42.2543096,2.43381487 42.9710833,2.61300831 43.3294702,3.15058864 L44.9422112,5.83849027 L14.7182507,23.8175656 Z" id="Shape"></path>
                    <path d="M43.2160896,24.7361307 L48.5321617,21.5703799 C49.069742,21.2717241 49.2489354,20.5549504 48.9502797,20.01737 L47.1583453,16.9710815 C46.8596895,16.4335012 46.1429158,16.2543077 45.6053354,16.5529635 L40.2892633,19.7187143 C39.751683,20.01737 39.5724896,20.7341438 39.8711453,21.2717241 L41.6630797,24.3180126 C41.9617355,24.855593 42.6785092,25.0347864 43.2160896,24.7361307 Z" id="Shape"></path>
                </g>
            </g>
        </g>
    </g>
</svg>