<?xml version="1.0" encoding="UTF-8"?>
<svg width="45px" height="44px" viewBox="0 0 45 44" version="1.1" xmlns="http://www.w3.org/2000/svg" xmlns:xlink="http://www.w3.org/1999/xlink">
    <!-- Generator: Sketch 43.1 (39012) - http://www.bohemiancoding.com/sketch -->
    <title>instant-payout</title>
    <desc>Created with Sketch.</desc>
    <defs></defs>
    <g id="Page-1" stroke="none" stroke-width="1" fill="none" fill-rule="evenodd">
        <g id="Desktop-HD" transform="translate(-913.000000, -1560.000000)" fill-rule="nonzero" fill="#A9F489">
            <g id="instant-payout" transform="translate(913.000000, 1560.000000)">
                <g id="Group" transform="translate(0.000000, 0.637820)">
                    <path d="M1.12160758,8.99391373 C0.492699005,9.15614808 0.00992096718,9.76919956 3.55271368e-15,10.4188846 L3.55271368e-15,41.8669525 C3.55271368e-15,42.6497146 0.712448054,43.3622 1.49547927,43.3622 C19.3947731,43.3622 32.2013295,43.3397713 43.3687948,43.3173426 C44.1165307,43.3547238 44.8642666,42.6048571 44.840866,42.1263779 C44.8769762,25.2016715 44.8431088,18.8700235 44.840866,7.43063246 C44.840866,6.6478704 44.1284179,5.93538496 43.3453867,5.93538496 L38.8823271,5.95781367 L38.8823271,3.73811876 C38.8823271,2.7415363 38.6037251,1.70682502 37.8775581,0.981629985 C37.1513912,0.254939699 36.1404544,0 35.1436401,0 C23.83509,2.85293223 12.4352782,5.98248526 1.12160758,8.99391373 L1.12160758,8.99391373 Z M41.8499523,8.92662759 C41.8501691,10.5788761 41.8495037,10.5370091 41.8499523,11.9642229 L38.8823645,11.9642229 L38.8823645,8.95055155 L41.8499523,8.92662759 Z M38.8823645,14.9547179 L41.8499523,14.9547179 C41.8505803,16.1755875 41.8492047,16.8768586 41.8499523,17.9452129 L38.8823645,17.9452129 L38.8823645,14.9547179 Z M38.8823645,20.9357303 L41.8499523,20.9357303 C41.8559333,27.0909167 41.8702129,34.0542843 41.8732781,40.3275952 C34.2609656,40.3425477 29.1744476,40.3425477 24.37154,40.3500239 C28.0327664,39.8558446 31.6913379,39.338489 35.3539392,38.855524 C36.3413334,38.6544132 37.0780717,38.0361284 37.6906223,37.4088721 C38.3253698,36.6477911 38.8823271,35.6414895 38.8823271,34.3952007 L38.8823645,20.9357303 Z" id="Shape"></path>
                </g>
            </g>
        </g>
    </g>
</svg>