<?xml version="1.0" encoding="UTF-8"?>
<svg width="37px" height="37px" viewBox="0 0 37 37" version="1.1" xmlns="http://www.w3.org/2000/svg" xmlns:xlink="http://www.w3.org/1999/xlink">
    <!-- Generator: Sketch 43.1 (39012) - http://www.bohemiancoding.com/sketch -->
    <title>logomark</title>
    <desc>Created with Sketch.</desc>
    <defs>
        <polygon id="path-1" points="0.000185 0.000111 36.75247 0.000111 36.75247 36.833241 0.000185 36.833241 0.000185 0.000111"></polygon>
    </defs>
    <g id="Page-1" stroke="none" stroke-width="1" fill="none" fill-rule="evenodd">
        <g id="Desktop-HD" transform="translate(-251.000000, -74.000000)">
            <g id="logomark" transform="translate(251.000000, 74.000000)">
                <mask id="mask-2" fill="white">
                    <use xlink:href="#path-1"></use>
                </mask>
                <g id="Clip-2"></g>
                <path d="M29.500285,8.687785 C29.514345,8.705175 29.528775,8.722565 29.544315,8.738845 C29.482155,8.839115 29.426285,8.943455 29.356725,9.038545 C25.683365,14.146765 22.009265,19.256095 18.324805,24.356915 C18.145355,24.604815 18.169405,24.720625 18.378085,24.927825 C20.868185,27.401275 23.346075,29.885825 25.829145,32.365565 C25.916835,32.454365 25.980845,32.583125 26.143645,32.604955 C28.503875,23.164405 30.862625,13.728295 33.240615,4.211525 C23.807095,9.321595 14.460155,14.385415 5.064375,19.474025 C7.214815,20.121525 9.294585,20.745345 11.372505,21.376565 C11.564905,21.435395 11.701805,21.397285 11.860535,21.283325 C14.641455,19.289765 17.425705,17.301755 20.210325,15.314485 C23.306485,13.104475 26.403385,10.897055 29.500285,8.687785 M36.731565,1.093905 C36.799645,1.391015 36.682355,2.057755 36.652015,2.176895 C36.274985,3.668365 35.900915,5.161685 35.527585,6.655005 C33.145155,16.192865 30.759395,25.730355 28.388065,35.270805 C28.201215,36.023015 27.894115,36.616495 27.094175,36.833315 L26.663495,36.833315 C26.145125,36.671625 25.780675,36.301255 25.411045,35.929775 C22.976445,33.488145 20.536665,31.050955 18.098735,28.613025 C18.019185,28.533475 17.936305,28.457625 17.844545,28.370305 C17.753155,28.492035 17.678785,28.584535 17.610705,28.682215 C16.288325,30.544055 14.968165,32.407745 13.645415,34.269955 C13.452275,34.542645 13.251735,34.812005 12.991995,35.028085 C12.267165,35.632665 11.605605,35.420285 11.431335,34.486775 C11.131265,32.888005 10.996585,31.265925 10.784205,29.654575 C10.545185,27.841945 10.313935,26.027095 10.097855,24.211135 C10.068255,23.961385 9.964655,23.881095 9.748945,23.817085 C6.983565,22.991615 4.224845,22.142465 1.453545,21.338455 C0.748695,21.134955 0.231435,20.799735 0.000185,20.088225 L0.000185,19.585395 C0.210715,18.988585 0.663965,18.650035 1.203055,18.358105 C10.535565,13.313525 19.859565,8.255255 29.191335,3.209565 C31.168985,2.140635 33.116295,1.013615 35.143525,0.036815 C35.430645,-0.085655 35.874275,0.130795 36.021905,0.208495 C36.458875,0.438265 36.604285,0.671735 36.731565,1.093905" id="Fill-1" fill="#A9F489" mask="url(#mask-2)"></path>
            </g>
        </g>
    </g>
</svg>