<?xml version="1.0" encoding="UTF-8"?>
<svg width="52px" height="52px" viewBox="0 0 52 52" version="1.1" xmlns="http://www.w3.org/2000/svg" xmlns:xlink="http://www.w3.org/1999/xlink">
    <!-- Generator: Sketch 43.1 (39012) - http://www.bohemiancoding.com/sketch -->
    <title>no-monthly-fees</title>
    <desc>Created with Sketch.</desc>
    <defs></defs>
    <g id="Page-1" stroke="none" stroke-width="1" fill="none" fill-rule="evenodd">
        <g id="Desktop-HD" transform="translate(-486.000000, -1229.000000)" fill-rule="nonzero" fill="#A9F489">
            <g id="no-monthly-fees" transform="translate(486.000000, 1229.000000)">
                <path d="M52,47.3498788 L44.6460005,39.9964712 C46.1700688,39.4489903 47.2703573,37.9912116 47.2703573,36.2842551 L47.2703573,21.8177395 L47.2703573,16.558964 L47.2703573,15.2438262 C47.2703573,13.0734346 45.4947438,11.2984129 43.3255359,11.2984129 L15.9479422,11.2984129 L4.64793743,-0.000408128812 L0.464,4.18471305 L7.81208081,11.532202 C6.28682875,12.0784991 5.18594834,13.5368697 5.18594834,15.2438262 L5.18594834,16.558964 L5.18594834,21.8177395 L5.18594834,36.2836632 C5.18594834,38.4546467 6.96156191,40.2296684 9.13195356,40.2296684 L36.510731,40.2296684 L47.8166544,51.535 L52,47.3498788 Z M41.3279706,36.6784413 L26.4672688,21.8177395 L43.7197221,21.8177395 L43.7197221,36.2836632 C43.7197221,36.4943694 43.5350583,36.6778494 43.3255359,36.6778494 L41.3279706,36.6778494 L41.3279706,36.6784413 Z M43.3255359,14.84964 C43.5350583,14.84964 43.7197221,15.0343038 43.7197221,15.2438262 L43.7197221,16.558964 L21.2084933,16.558964 L19.4991693,14.84964 L43.3255359,14.84964 L43.3255359,14.84964 Z M12.8394347,16.558964 L8.7365836,16.558964 L8.7365836,15.2438262 C8.7365836,15.0343038 8.92124741,14.84964 9.13195356,14.84964 L11.1295188,14.84964 L12.8394347,16.558964 Z M9.13195356,36.6784413 C8.92124741,36.6784413 8.7365836,36.4949612 8.7365836,36.2842551 L8.7365836,21.8177395 L18.0982102,21.8177395 L32.958912,36.6778494 L9.13195356,36.6778494 L9.13195356,36.6784413 Z" id="Shape"></path>
            </g>
        </g>
    </g>
</svg>