<?xml version="1.0" encoding="UTF-8"?>
<svg width="43px" height="41px" viewBox="0 0 43 41" version="1.1" xmlns="http://www.w3.org/2000/svg" xmlns:xlink="http://www.w3.org/1999/xlink">
    <!-- Generator: Sketch 43.1 (39012) - http://www.bohemiancoding.com/sketch -->
    <title>organized-documents</title>
    <desc>Created with Sketch.</desc>
    <defs></defs>
    <g id="Page-1" stroke="none" stroke-width="1" fill="none" fill-rule="evenodd">
        <g id="Desktop-HD" transform="translate(-490.000000, -1561.000000)" fill-rule="nonzero" fill="#A9F489">
            <g id="organized-documents" transform="translate(490.000000, 1561.000000)">
                <g id="Group">
                    <path d="M40.7366881,3.27827269 L34.218818,3.27827269 L34.218818,1.75605041 C34.218818,0.915783708 33.4888166,0.233828125 32.5893505,0.233828125 C31.6898844,0.233828125 30.959883,0.915783708 30.959883,1.75605041 L30.959883,3.27827269 L11.4062727,3.27827269 L11.4062727,1.75605041 C11.4062727,0.915783708 10.6762712,0.233828125 9.77680515,0.233828125 C8.87733908,0.233828125 8.14733763,0.915783708 8.14733763,1.75605041 L8.14733763,3.27827269 L1.62946753,3.27827269 C0.730001451,3.27827269 0,3.96022828 0,4.80049498 L0,12.4116064 L42.3661557,12.4116064 L42.3661557,4.80049498 C42.3661557,3.96022828 41.6361542,3.27827269 40.7366881,3.27827269 Z" id="Shape"></path>
                    <path d="M0,39.1939316 C0,40.0341983 0.730001451,40.7161538 1.62946753,40.7161538 L40.7366881,40.7161538 C41.6361542,40.7161538 42.3661557,40.0341983 42.3661557,39.1939316 L42.3661557,16.3605973 L0,16.3605973 L0,39.1939316 Z M13.3094907,27.6943033 C13.8081078,26.9948422 14.8208219,26.8053255 15.5687475,27.2718866 L19.2391231,29.5575034 L26.4495169,21.4752642 C27.0255336,20.8298419 28.0529129,20.741553 28.7438071,21.2804197 C29.4347014,21.8192864 29.5283958,22.7782865 28.952379,23.4244698 L20.8050414,32.5578035 C20.4856657,32.9162869 20.0220822,33.1050424 19.5527956,33.1050424 C19.2407525,33.1050424 18.9262653,33.0220813 18.6500706,32.8493091 L13.761668,29.8048645 C13.0129277,29.3390645 12.810059,28.3937645 13.3094907,27.6943033 Z" id="Shape"></path>
                </g>
            </g>
        </g>
    </g>
</svg>