<?xml version="1.0" encoding="UTF-8"?>
<svg width="123px" height="21px" viewBox="0 0 123 21" version="1.1" xmlns="http://www.w3.org/2000/svg" xmlns:xlink="http://www.w3.org/1999/xlink">
    <!-- Generator: Sketch 43.1 (39012) - http://www.bohemiancoding.com/sketch -->
    <title>powered_by_stripe</title>
    <desc>Created with Sketch.</desc>
    <defs></defs>
    <g id="Page-1" stroke="none" stroke-width="1" fill="none" fill-rule="evenodd" opacity="0.338428442">
        <g id="Desktop-HD" transform="translate(-659.000000, -1061.000000)" fill="#232323">
            <g id="powered_by_stripe" transform="translate(659.000000, 1061.000000)">
                <path d="M3.05737658,5.61445161 L0,5.61445161 L0,14.3347957 L1.61059298,14.3347957 L1.61059298,11.2036129 L3.05737658,11.2036129 C4.81982206,11.2036129 6.07768681,10.0631398 6.07768681,8.41565591 C6.07768681,6.76817204 4.81982206,5.61445161 3.05737658,5.61445161 Z M10.1298766,7.84602151 C8.22992688,7.84602151 6.88358115,9.21410753 6.88358115,11.1662796 C6.88358115,13.1052043 8.22992688,14.4865376 10.1298766,14.4865376 C12.0298263,14.4865376 13.3642151,13.1052043 13.3642151,11.1662796 C13.3642151,9.21410753 12.0298263,7.84602151 10.1298766,7.84602151 Z M21.9588271,7.99776344 L20.6878098,12.3067527 L19.4167925,7.99776344 L17.958052,7.99776344 L16.6870347,12.3067527 L15.4160173,7.99776344 L13.8054243,7.99776344 L15.9696213,14.3347957 L17.4164049,14.3347957 L18.6874222,10.0258065 L19.9715921,14.3347957 L21.4183757,14.3347957 L23.5694201,7.99776344 L21.9588271,7.99776344 Z M27.1194205,7.84602151 C25.3199087,7.84602151 24.011825,9.20206452 24.011825,11.1156989 C24.011825,13.091957 25.3450182,14.4865376 27.2449679,14.4865376 C27.9492287,14.4865376 28.666642,14.3215484 29.3840554,13.9927742 L29.3840554,12.6355269 C28.7300135,13.016086 28.0879286,13.2316559 27.5092151,13.2316559 C26.4522261,13.2316559 25.6977464,12.5729032 25.5961128,11.6094624 L29.8623309,11.6094624 C29.8874404,11.3938925 29.8874404,11.1915699 29.8874404,11.0133333 C29.8874404,9.15148387 28.7670799,7.84602151 27.1194205,7.84602151 Z M34.8579193,7.90864516 C34.682153,7.85806452 34.5063867,7.84602151 34.3294248,7.84602151 C33.7889734,7.84602151 33.2353694,8.12421505 32.7822033,8.63122581 L32.7822033,7.99776344 L31.1716103,7.99776344 L31.1716103,14.3347957 L32.7822033,14.3347957 L32.7822033,10.1016774 C33.1971074,9.56937634 33.7638639,9.27793548 34.2923584,9.27793548 C34.4812773,9.27793548 34.682153,9.30322581 34.8579193,9.35380645 L34.8579193,7.90864516 Z M38.5454239,7.84602151 C36.7459121,7.84602151 35.4378284,9.20206452 35.4378284,11.1156989 C35.4378284,13.091957 36.7710216,14.4865376 38.6709713,14.4865376 C39.3764277,14.4865376 40.0938411,14.3215484 40.8100587,13.9927742 L40.8100587,12.6355269 C40.1560169,13.016086 39.5151276,13.2316559 38.9352185,13.2316559 C37.8794252,13.2316559 37.1237498,12.5729032 37.0233119,11.6094624 L41.2883343,11.6094624 C41.3134438,11.3938925 41.3134438,11.1915699 41.3134438,11.0133333 C41.3134438,9.15148387 40.194279,7.84602151 38.5454239,7.84602151 Z M48.235287,5.22184946 L46.6115414,5.22184946 L46.6115414,8.42890323 C46.121309,8.04834409 45.567705,7.84602151 45.014101,7.84602151 C43.3401365,7.84602151 42.1707527,9.21410753 42.1707527,11.1662796 C42.1707527,13.1172473 43.3401365,14.4865376 45.014101,14.4865376 C45.567705,14.4865376 46.121309,14.2842151 46.6115414,13.8904086 L46.6115414,14.3347957 L48.235287,14.3347957 L48.235287,5.22184946 Z M56.3396665,7.84602151 C55.7992151,7.84602151 55.2444155,8.04834409 54.7422261,8.42890323 L54.7422261,5.22184946 L53.1316331,5.22184946 L53.1316331,14.3347957 L54.7422261,14.3347957 L54.7422261,13.8904086 C55.2444155,14.2842151 55.7992151,14.4865376 56.3396665,14.4865376 C58.0255879,14.4865376 59.1830148,13.1172473 59.1830148,11.1662796 C59.1830148,9.21410753 58.0255879,7.84602151 56.3396665,7.84602151 Z M64.2551272,7.99776344 L62.7330152,12.1550108 L61.2228601,7.99776344 L59.5740051,7.99776344 L61.9773398,14.1059785 L60.769694,17.1095054 L62.330068,17.1095054 L65.9039822,7.99776344 L64.2551272,7.99776344 Z M77.1673719,7.29565591 C78.1992515,7.29565591 79.5109222,7.6135914 80.5439975,8.176 L80.5439975,4.95449462 C79.4188542,4.50288172 78.2949066,4.32946237 77.1697633,4.32946237 C74.4160917,4.32946237 72.5807092,5.77823656 72.5807092,8.19888172 C72.5807092,11.984 77.7413026,11.3698065 77.7413026,13.0016344 C77.7413026,13.6338925 77.1960685,13.8386237 76.4391974,13.8386237 C75.3140541,13.8386237 73.8624877,13.3701505 72.7229962,12.7463226 L72.7229962,16.0111828 C73.9856437,16.5579355 75.2650309,16.7867527 76.4356103,16.7867527 C79.2586319,16.7867527 81.2040178,15.3825376 81.2040178,12.9209462 C81.2040178,8.8431828 76.0135321,9.57539785 76.0135321,8.03630108 C76.0135321,7.5027957 76.455937,7.29565591 77.1673719,7.29565591 Z M88.0134662,4.55707527 L85.4355609,4.55707527 L85.4331695,1.58726882 L82.1187198,2.29780645 L82.1031758,13.2677849 C82.1031758,15.2922151 83.6157223,16.7867527 85.6304582,16.7867527 C86.7400575,16.7867527 87.5603001,16.5844301 88.0122705,16.3339355 L88.0122705,13.5507957 C87.5782354,13.7254194 85.4355609,14.3528602 85.4355609,12.3380645 L85.4355609,7.47268817 L88.0134662,7.47268817 L88.0134662,4.55707527 Z M95.3011902,4.55827957 C94.8492198,4.39449462 93.2625406,4.09582796 92.4674074,5.56748387 L92.2545748,4.55707527 L89.3191585,4.55707527 L89.3191585,16.5422796 L92.7125237,16.5422796 L92.7125237,8.41686022 C93.5148309,7.35587097 94.8695465,7.56060215 95.3011902,7.70150538 L95.3011902,4.55827957 Z M99.7539358,0 L96.3462223,0.729806452 L96.3462223,3.51535484 L99.7539358,2.78554839 L99.7539358,0 Z M99.7539358,4.55707527 L96.3462223,4.55707527 L96.3462223,16.5422796 L99.7539358,16.5422796 L99.7539358,4.55707527 Z M107.078726,4.32946237 C105.747924,4.32946237 104.888224,4.96051613 104.419514,5.40129032 L104.242552,4.55707527 L101.25333,4.55707527 L101.254525,20.5188817 L104.649086,19.7914839 L104.65626,15.9220645 C105.144101,16.2821505 105.869885,16.7867527 107.058399,16.7867527 C109.486844,16.7867527 111.708434,14.8189247 111.708434,10.4738065 C111.708434,6.4923871 109.46293,4.32946237 107.078726,4.32946237 Z M117.749054,4.32946237 C114.519498,4.32946237 112.553786,7.09453763 112.553786,10.5773763 C112.553786,14.7009032 114.871031,16.7867527 118.178306,16.7867527 C119.800856,16.7867527 121.019263,16.415828 121.941139,15.9003871 L121.941139,13.1461505 C121.015676,13.615828 119.953904,13.9024516 118.606363,13.9024516 C117.282735,13.9024516 116.116939,13.4303656 115.965086,11.8274409 L122.611921,11.8274409 C122.627465,11.6431828 122.657357,10.9266237 122.657357,10.5954409 C122.657357,7.09333333 120.973827,4.32946237 117.749054,4.32946237 Z M117.727532,7.11741935 C118.560927,7.11741935 119.445737,7.76412903 119.445737,9.30322581 L115.935194,9.30322581 C115.935194,7.76292473 116.878593,7.11741935 117.727532,7.11741935 Z M106.266853,13.7663656 C105.470525,13.7663656 104.995836,13.4773333 104.665826,13.1172473 L104.645499,8.03630108 C104.999423,7.64490323 105.48846,7.35827957 106.266853,7.35827957 C107.509174,7.35827957 108.364092,8.76008602 108.364092,10.5484731 C108.364092,12.3898495 107.522327,13.7663656 106.266853,13.7663656 Z M56.0000909,13.091957 C55.5600773,13.091957 55.1188681,12.9016774 54.7422261,12.5223226 L54.7422261,9.81023656 C55.1188681,9.42967742 55.5600773,9.23939785 56.0000909,9.23939785 C56.9064231,9.23939785 57.5353555,10.0258065 57.5353555,11.1662796 C57.5353555,12.3067527 56.9064231,13.091957 56.0000909,13.091957 Z M45.3668292,13.091957 C44.4473445,13.091957 43.8184121,12.3067527 43.8184121,11.1662796 C43.8184121,10.0258065 44.4473445,9.23939785 45.3668292,9.23939785 C45.8068428,9.23939785 46.2468563,9.42967742 46.6115414,9.81023656 L46.6115414,12.5223226 C46.2468563,12.9016774 45.8068428,13.091957 45.3668292,13.091957 Z M38.4832481,9.09969892 C39.1994658,9.09969892 39.7160034,9.69582796 39.7662223,10.5581075 L37.0233119,10.5581075 C37.0986403,9.68378495 37.7024632,9.09969892 38.4832481,9.09969892 Z M27.056049,9.09969892 C27.7734624,9.09969892 28.29,9.69582796 28.3402189,10.5581075 L25.5961128,10.5581075 C25.6726369,9.68378495 26.2764598,9.09969892 27.056049,9.09969892 Z M10.1298766,13.1304946 C9.18647802,13.1304946 8.53243618,12.332043 8.53243618,11.1662796 C8.53243618,10.0005161 9.18647802,9.20206452 10.1298766,9.20206452 C11.0613183,9.20206452 11.7153601,10.0005161 11.7153601,11.1662796 C11.7153601,12.332043 11.0613183,13.1304946 10.1298766,13.1304946 Z M2.83139138,9.88610753 L1.61059298,9.88610753 L1.61059298,6.93316129 L2.83139138,6.93316129 C3.76283305,6.93316129 4.41687489,7.52929032 4.41687489,8.41565591 C4.41687489,9.28997849 3.76283305,9.88610753 2.83139138,9.88610753 Z" id="Shape-Copy"></path>
            </g>
        </g>
    </g>
</svg>